<svg version="1.1" xmlns="http://www.w3.org/2000/svg" height="64" width="64" viewBox="0 0 1024 1024" style="width: 64px; height: 64px;"><path fill="#E50914" d="M963.145143 589.604571c11.190857 20.626286 26.112 60.416 8.338286 104.740571-1.682286 5.046857-10.825143 29.988571-27.940571 47.177143 9.728 37.449143 9.289143 98.230857-41.837714 141.897143-2.121143 25.380571-2.194286 93.622857-53.540571 111.250286-131.949714 35.913143-221.403429 28.379429-221.403429 28.379429-63.707429-0.219429-130.779429-5.485714-229.741714-19.894857-49.225143-7.168-74.752-11.044571-74.752-36.937143L322.048 458.532571c0-13.897143 27.867429-32.256 27.867429-32.256 56.832-24.649143 143.725714-57.344 193.755429-113.664 52.955429-59.611429 83.821714-158.939429 83.017143-255.780571C627.858286 26.331429 646.656 0 682.057143 0c26.331429 0 43.154286 10.605714 55.369143 28.452571 12.214857 17.773714 97.206857 148.553143 27.648 364.397714l118.418286 0c0 0 0 0 0.073143 0 8.192 0 70.363429 2.56 96.475429 84.553143C984.356571 487.570286 1000.374857 534.528 963.145143 589.604571zM873.398857 454.875429l-135.899429-0.146286c-23.113143 0-32.694857-15.067429-27.648-28.452571 70.144-185.929143 9.508571-326.875429-1.609143-337.846857C697.051429 77.458286 660.845714 72.045714 660.845714 126.756571c5.997714 100.352-27.940571 184.466286-85.430857 248.32C522.459429 433.810286 426.569143 464.457143 377.636571 483.108571l0 454.729143c34.011429 10.678857 104.448 28.452571 221.403429 28.452571 146.139429-0.073143 216.795429-26.916571 217.673143-27.282286 33.133714-14.189714 32.036571-86.162286 31.451429-86.454857 17.627429 9.289143 44.617143-66.998857 40.009143-110.08 1.170286 10.752-0.146286-21.430857 9.362286-26.258286 8.557714-4.388571 18.139429-22.528 21.869714-33.353143 15.36-37.741714-9.654857-70.729143-10.678857-72.118857-5.851429-7.606857-5.778286-18.432 0.365714-25.819429C930.962286 558.445714 950.272 454.875429 873.398857 454.875429zM239.250286 1023.122286 100.790857 1023.122286C89.307429 1023.122286 73.142857 1006.299429 73.142857 994.669714l0.292571-540.964571c0-11.556571 15.872-27.428571 27.355429-27.428571l138.386286 0c11.483429 0 27.648 16.896 27.648 28.452571l0 540.013714C266.898286 1006.299429 250.733714 1023.122286 239.250286 1023.122286zM170.057143 852.553143c-22.966857 0-41.545143 19.090286-41.545143 42.642286s18.578286 42.642286 41.545143 42.642286 41.545143-19.090286 41.545143-42.642286S192.950857 852.553143 170.057143 852.553143z" class="" style="fill: rgb(229, 9, 20);"></path></svg>