<svg version="1.1" xmlns="http://www.w3.org/2000/svg" height="64" width="64" viewBox="0 0 1024 1024" style="width: 64px; height: 64px;"><path fill="#E50914" d="M962.194286 589.604571c11.629714 20.626286 27.209143 60.416 8.704 104.740571-1.755429 5.046857-11.264 29.988571-29.110857 47.177143 10.093714 37.449143 9.654857 98.230857-43.52 141.897143-2.194286 25.380571-2.340571 93.622857-55.661714 111.250286-137.289143 35.913143-230.326857 28.452571-230.326857 28.452571-66.267429-0.219429-135.972571-5.485714-238.884571-19.894857-51.2-7.168-77.750857-11.044571-77.750857-36.937143L295.424 458.532571c0-13.897143 29.037714-32.256 29.037714-32.256 59.099429-24.649143 149.430857-57.344 201.508571-113.664 55.076571-59.611429 87.186286-158.939429 86.381714-255.780571C613.449143 26.331429 633.051429 0 669.842286 0c27.428571 0 44.909714 10.605714 57.563429 28.452571 12.653714 17.773714 101.156571 148.553143 28.745143 364.397714l123.172571 0c0 0 0.073143 0 0.073143 0 8.484571 0 73.216 2.56 100.352 84.553143C984.210286 487.570286 1000.886857 534.528 962.194286 589.604571zM209.261714 1023.122286 65.389714 1023.122286c-11.995429 0-28.818286-16.822857-28.818286-28.452571l0.292571-540.964571c0-11.556571 16.530286-27.428571 28.452571-27.428571l143.945143 0c11.995429 0 28.818286 16.896 28.818286 28.452571l0 540.013714C238.08 1006.299429 221.257143 1023.122286 209.261714 1023.122286zM137.362286 852.553143c-23.844571 0-43.154286 19.090286-43.154286 42.642286s19.309714 42.642286 43.154286 42.642286c23.844571 0 43.154286-19.090286 43.154286-42.642286S161.206857 852.553143 137.362286 852.553143z" class="" style="fill: rgb(229, 9, 20);"></path></svg>